<svg class="svg-hokey-federation" xmlns="http://www.w3.org/2000/svg" viewBox="0 0 85 87" width="85px" height="87px">
    <path fill-rule="evenodd" d="M68.504,62.621 C68.504,62.621 69.191,61.600 70.316,61.600 C71.446,61.600 72.130,62.621 72.130,62.621 L70.316,65.914 L68.504,62.621 ZM81.622,40.039 C81.622,40.039 75.300,41.251 69.436,40.173 L68.804,41.657 C75.735,43.466 82.073,42.882 82.073,42.882 C81.107,47.922 76.687,48.429 76.687,48.429 C76.687,48.429 71.913,47.135 67.029,44.535 L66.145,45.626 C71.061,48.995 76.238,50.966 76.238,50.966 C74.465,54.212 70.388,53.840 70.388,53.840 C70.388,53.840 66.851,51.113 63.985,47.719 L62.942,48.454 C65.742,52.462 69.404,56.003 69.404,56.003 C66.722,57.842 63.335,56.958 63.335,56.958 C63.335,56.958 61.578,53.619 60.292,49.975 C59.928,50.181 59.014,50.545 57.997,50.878 L57.997,56.584 C60.686,56.987 61.944,58.188 62.363,59.681 L62.370,59.672 C62.384,59.719 62.393,59.772 62.402,59.819 C62.418,59.878 62.430,59.936 62.446,59.998 C62.469,60.117 62.486,60.241 62.505,60.372 C62.510,60.406 62.514,60.441 62.517,60.474 C62.766,62.855 61.746,66.357 63.157,66.548 C62.513,66.973 61.613,66.713 61.104,66.056 C60.521,67.225 59.980,68.021 59.980,68.021 C61.189,68.327 63.769,69.169 64.967,69.696 C65.102,67.665 66.366,65.947 68.150,65.166 L68.984,66.679 L70.311,69.091 L71.635,66.679 L72.470,65.166 C74.355,65.992 75.676,67.864 75.676,70.051 C75.676,70.937 75.440,71.761 75.059,72.498 C75.060,72.504 75.068,72.509 75.070,72.519 C75.676,74.731 72.662,76.168 71.325,75.540 C70.091,77.867 66.827,76.377 65.491,74.154 C64.783,72.987 62.568,69.835 57.686,69.153 C58.125,67.195 58.061,65.678 57.702,64.636 C56.899,67.965 54.507,68.838 51.213,68.908 L58.728,76.333 C58.959,77.863 58.608,79.901 58.608,79.901 C58.608,79.904 57.038,80.310 55.090,80.250 L48.606,70.020 C48.606,70.020 47.338,70.141 47.702,70.760 L53.234,81.480 C52.933,82.924 51.665,84.611 51.665,84.611 C51.665,84.611 49.830,84.233 48.210,83.489 L44.425,71.048 L43.462,71.696 L46.115,84.373 C46.115,84.373 44.747,86.067 42.505,86.999 C42.497,86.998 42.492,86.995 42.487,86.993 C42.480,86.995 42.477,86.998 42.468,86.999 C40.229,86.067 38.859,84.373 38.859,84.373 L41.509,71.696 L40.550,71.048 L36.767,83.489 C35.144,84.233 33.312,84.611 33.312,84.611 C33.312,84.611 32.042,82.924 31.742,81.480 L37.271,70.760 C37.635,70.141 36.367,70.020 36.367,70.020 L29.884,80.250 C27.935,80.310 26.365,79.904 26.365,79.901 C26.365,79.901 26.016,77.863 26.244,76.333 L33.760,68.907 C30.513,68.837 28.148,67.978 27.317,64.754 C26.986,65.792 26.925,67.255 27.351,69.153 C24.383,69.423 20.912,72.311 20.124,73.000 C21.953,74.805 23.311,76.142 23.396,76.228 C23.877,76.704 24.019,77.155 23.975,77.376 C23.943,77.560 23.840,77.747 23.684,77.896 C23.539,78.042 23.353,78.140 23.166,78.168 C23.162,78.173 23.161,78.170 23.155,78.170 C22.934,78.207 22.533,78.077 22.018,77.573 C21.905,77.462 20.373,75.869 18.387,73.805 C13.381,73.655 11.887,71.832 12.440,69.944 C11.344,69.081 11.733,67.924 12.331,67.535 L12.350,67.521 C10.251,65.337 8.646,63.666 8.646,63.666 C8.380,63.670 8.107,63.584 7.911,63.403 C5.425,65.712 1.970,63.319 1.889,61.287 C1.860,60.564 4.305,62.039 4.706,60.742 C4.900,60.117 3.745,59.581 3.196,60.504 C3.113,60.045 3.239,59.564 3.463,59.196 C3.200,59.258 2.913,59.187 2.713,58.978 C2.428,58.683 2.425,58.228 2.688,57.925 C2.679,57.916 2.668,57.909 2.659,57.900 C2.277,57.503 2.291,56.872 2.691,56.493 C3.090,56.113 3.723,56.127 4.105,56.524 C4.115,56.535 4.122,56.547 4.132,56.558 C4.444,56.352 4.869,56.390 5.138,56.671 C5.333,56.874 5.394,57.154 5.329,57.408 C5.676,57.237 6.097,57.150 6.501,57.224 C5.579,57.767 6.109,58.921 6.733,58.733 C8.041,58.339 6.571,55.897 7.300,55.931 C9.339,56.021 11.726,59.471 9.392,61.932 C9.577,62.133 9.658,62.403 9.650,62.668 C9.650,62.668 11.393,64.388 13.635,66.601 C14.623,65.063 15.679,65.470 16.634,66.626 C18.171,68.489 19.627,68.978 21.354,68.991 C22.438,69.003 24.032,68.583 25.134,68.078 C24.829,67.624 24.318,66.827 23.932,66.055 C23.424,66.714 22.523,66.973 21.879,66.548 C23.291,66.357 22.270,62.855 22.519,60.474 C22.521,60.441 22.529,60.406 22.533,60.372 C22.549,60.241 22.569,60.117 22.593,59.997 C22.605,59.936 22.620,59.878 22.634,59.818 C22.646,59.771 22.653,59.719 22.667,59.672 L22.673,59.682 C23.090,58.197 24.333,57.000 26.987,56.590 L26.987,50.877 C25.971,50.544 25.058,50.181 24.691,49.975 C23.406,53.619 21.647,56.958 21.647,56.958 C21.647,56.958 18.265,57.842 15.582,56.003 C15.582,56.003 19.242,52.462 22.040,48.454 L21.000,47.719 C18.134,51.114 14.600,53.840 14.600,53.840 C14.600,53.840 10.521,54.213 8.747,50.966 C8.747,50.966 13.923,48.995 18.843,45.626 L17.955,44.536 C13.067,47.136 8.300,48.430 8.300,48.430 C8.300,48.430 3.877,47.922 2.912,42.882 C2.912,42.882 9.247,43.466 16.182,41.657 L15.548,40.173 C9.687,41.251 3.365,40.039 3.365,40.039 C3.365,40.039 -0.471,37.606 0.021,32.597 C0.021,32.597 5.773,35.916 14.678,36.858 L14.489,35.038 C7.110,33.502 1.708,29.879 1.708,29.879 C1.708,29.879 -1.117,25.590 1.345,20.737 C1.345,20.737 6.103,27.117 14.758,31.184 L14.790,31.027 C14.882,30.349 15.000,29.720 15.147,29.137 C14.760,28.906 7.329,24.417 4.348,18.906 C4.348,18.906 3.330,13.164 7.793,9.774 C9.416,16.024 13.216,21.306 16.755,25.146 C17.464,23.979 18.078,23.396 18.078,23.396 C18.740,26.091 20.555,29.116 23.770,31.508 C23.041,31.747 22.316,31.998 21.597,32.264 L20.892,32.527 L21.178,33.219 C21.189,33.248 22.403,36.307 21.159,40.115 L20.947,40.766 L21.587,41.014 L21.686,41.053 L21.809,41.062 C23.592,41.208 25.986,41.428 26.871,41.572 L26.987,41.591 L26.987,40.857 L26.987,40.857 C25.710,40.649 21.851,40.339 21.851,40.339 L21.851,40.339 C23.200,36.207 21.851,32.944 21.851,32.944 C28.435,30.495 35.463,29.272 42.491,29.272 C49.519,29.272 56.548,30.495 63.135,32.944 C63.135,32.944 61.404,35.959 63.134,40.339 L63.135,40.339 L63.134,40.339 C61.082,40.427 59.274,40.649 57.997,40.857 L57.997,40.857 L57.997,41.591 L58.114,41.572 C59.231,41.390 61.015,41.154 63.165,41.063 L64.185,41.019 L63.811,40.074 C62.242,36.102 63.705,33.412 63.768,33.300 L64.181,32.563 L63.389,32.265 C62.669,31.998 61.943,31.747 61.215,31.508 C64.429,29.116 66.245,26.091 66.906,23.396 C66.906,23.396 67.518,23.979 68.230,25.146 C71.766,21.306 75.572,16.024 77.193,9.774 C81.656,13.163 80.637,18.906 80.637,18.906 C77.656,24.416 70.223,28.905 69.836,29.138 C69.983,29.720 70.102,30.349 70.193,31.027 L70.225,31.184 C78.883,27.117 83.640,20.736 83.640,20.736 C86.101,25.590 83.278,29.878 83.278,29.878 C83.278,29.878 77.873,33.502 70.494,35.039 L70.308,36.859 C79.214,35.916 84.964,32.597 84.964,32.597 C85.454,37.606 81.622,40.039 81.622,40.039 ZM4.669,57.989 C4.484,58.013 4.292,57.972 4.130,57.865 C4.110,57.887 4.094,57.911 4.073,57.932 C4.036,57.967 3.995,57.996 3.955,58.023 C4.070,58.212 4.098,58.437 4.040,58.644 C4.286,58.535 4.546,58.560 4.770,58.783 C4.526,58.538 4.524,58.251 4.669,57.989 ZM26.925,36.903 C26.625,36.403 26.321,35.902 26.020,35.406 C26.304,34.768 26.587,34.133 26.871,33.502 C26.886,33.466 26.881,33.423 26.853,33.391 C26.827,33.364 26.785,33.350 26.745,33.362 C26.585,33.407 26.426,33.457 26.267,33.504 C26.238,33.514 26.214,33.535 26.203,33.563 C26.023,33.996 25.843,34.429 25.664,34.864 L25.154,33.941 C25.129,33.896 25.076,33.879 25.028,33.893 C24.873,33.946 24.716,33.998 24.558,34.050 C24.526,34.060 24.501,34.082 24.491,34.114 C24.481,34.141 24.485,34.174 24.499,34.203 C24.776,34.654 25.055,35.109 25.332,35.564 C25.032,36.257 24.734,36.948 24.431,37.641 C24.414,37.680 24.422,37.723 24.449,37.753 C24.472,37.775 24.497,37.786 24.526,37.786 C24.536,37.786 24.550,37.786 24.562,37.781 C24.718,37.727 24.877,37.674 25.032,37.623 C25.063,37.615 25.084,37.591 25.095,37.566 C25.295,37.082 25.493,36.599 25.692,36.116 C25.887,36.460 26.081,36.802 26.276,37.145 C26.300,37.187 26.348,37.209 26.393,37.192 C26.553,37.147 26.710,37.099 26.867,37.054 C26.896,37.046 26.921,37.022 26.936,36.994 C26.947,36.963 26.945,36.930 26.925,36.903 ZM29.599,33.757 C29.599,33.618 29.575,33.482 29.529,33.358 C29.478,33.228 29.404,33.117 29.305,33.027 C29.202,32.938 29.071,32.879 28.917,32.848 C28.768,32.820 28.588,32.832 28.390,32.884 C28.178,32.936 27.998,33.019 27.851,33.128 C27.707,33.234 27.585,33.357 27.496,33.491 C27.405,33.623 27.338,33.763 27.297,33.912 C27.254,34.053 27.235,34.192 27.235,34.320 L27.235,35.727 C27.235,35.887 27.256,36.034 27.297,36.166 C27.340,36.304 27.413,36.424 27.511,36.515 C27.613,36.605 27.744,36.667 27.901,36.696 C27.948,36.705 28.002,36.709 28.058,36.709 C28.170,36.709 28.302,36.688 28.441,36.650 C28.610,36.607 28.766,36.543 28.906,36.456 C29.051,36.367 29.171,36.258 29.275,36.135 C29.378,36.009 29.456,35.874 29.512,35.718 C29.570,35.561 29.599,35.396 29.599,35.228 L29.599,33.757 ZM32.127,33.713 C32.212,33.576 32.284,33.409 32.338,33.217 L32.625,32.136 C32.632,32.102 32.625,32.064 32.602,32.040 C32.576,32.013 32.539,31.999 32.507,32.007 C32.365,32.034 32.222,32.057 32.081,32.086 C32.044,32.093 32.013,32.123 32.002,32.160 L31.705,33.230 C31.670,33.341 31.632,33.434 31.585,33.507 C31.546,33.571 31.496,33.627 31.447,33.667 C31.397,33.707 31.347,33.737 31.297,33.757 C31.241,33.777 31.188,33.790 31.136,33.801 C31.047,33.820 30.956,33.840 30.865,33.860 L30.865,32.458 C30.865,32.426 30.851,32.395 30.826,32.377 C30.803,32.357 30.770,32.351 30.739,32.354 C30.588,32.386 30.443,32.421 30.294,32.454 C30.244,32.466 30.213,32.506 30.213,32.553 L30.213,36.062 C30.213,36.094 30.226,36.126 30.249,36.145 C30.267,36.160 30.294,36.165 30.313,36.165 L30.336,36.165 C30.485,36.129 30.635,36.097 30.786,36.068 C30.830,36.057 30.865,36.012 30.865,35.965 L30.865,34.448 C30.977,34.426 31.091,34.400 31.206,34.377 C31.265,34.363 31.323,34.357 31.390,34.357 C31.436,34.357 31.477,34.365 31.517,34.384 C31.558,34.406 31.598,34.440 31.637,34.491 C31.678,34.545 31.713,34.618 31.740,34.718 L32.024,35.719 C32.040,35.769 32.084,35.805 32.143,35.791 C32.298,35.762 32.452,35.735 32.610,35.708 C32.636,35.703 32.661,35.683 32.676,35.660 C32.694,35.637 32.698,35.603 32.688,35.579 L32.375,34.511 C32.323,34.334 32.257,34.185 32.167,34.069 C32.117,33.999 32.052,33.946 31.972,33.907 C32.030,33.853 32.081,33.788 32.127,33.713 ZM35.068,33.237 C35.153,33.106 35.227,32.941 35.278,32.751 L35.570,31.683 C35.579,31.653 35.570,31.615 35.548,31.587 C35.527,31.566 35.492,31.552 35.459,31.556 C35.316,31.573 35.170,31.589 35.031,31.609 C34.989,31.615 34.958,31.645 34.944,31.683 L34.646,32.738 C34.609,32.848 34.572,32.937 34.526,33.005 C34.485,33.070 34.435,33.122 34.387,33.158 C34.336,33.196 34.289,33.223 34.241,33.237 C34.181,33.255 34.129,33.269 34.076,33.277 C33.983,33.290 33.891,33.306 33.800,33.318 L33.800,31.909 C33.800,31.881 33.785,31.850 33.761,31.830 C33.740,31.813 33.709,31.802 33.677,31.808 C33.527,31.832 33.378,31.856 33.227,31.883 C33.175,31.892 33.140,31.933 33.140,31.984 L33.140,35.493 C33.140,35.525 33.155,35.553 33.177,35.572 C33.194,35.587 33.221,35.598 33.244,35.598 C33.250,35.598 33.254,35.596 33.260,35.596 C33.413,35.568 33.562,35.542 33.713,35.520 C33.761,35.513 33.800,35.470 33.800,35.418 L33.800,33.907 L34.135,33.855 C34.185,33.847 34.239,33.843 34.289,33.843 L34.315,33.843 C34.361,33.845 34.408,33.858 34.455,33.882 C34.493,33.902 34.538,33.941 34.574,33.993 C34.619,34.050 34.654,34.132 34.681,34.228 L34.967,35.246 C34.981,35.296 35.029,35.323 35.077,35.320 C35.234,35.299 35.392,35.279 35.548,35.260 C35.575,35.257 35.605,35.238 35.622,35.212 C35.639,35.190 35.643,35.158 35.635,35.128 L35.318,34.047 C35.265,33.861 35.200,33.715 35.113,33.595 C35.060,33.522 34.991,33.464 34.911,33.423 C34.969,33.369 35.020,33.308 35.068,33.237 ZM38.305,34.479 C38.305,34.450 38.295,34.422 38.270,34.403 C38.251,34.382 38.224,34.370 38.195,34.377 C37.718,34.413 37.236,34.456 36.758,34.505 L36.758,33.530 C37.168,33.489 37.577,33.451 37.988,33.419 C38.042,33.413 38.082,33.368 38.082,33.315 L38.082,32.938 C38.082,32.908 38.071,32.879 38.051,32.861 C38.030,32.841 37.999,32.829 37.974,32.833 C37.569,32.867 37.162,32.902 36.758,32.946 L36.758,32.000 C37.242,31.954 37.728,31.908 38.212,31.871 C38.263,31.867 38.305,31.820 38.305,31.767 L38.305,31.375 C38.305,31.345 38.295,31.317 38.270,31.298 C38.251,31.280 38.224,31.266 38.195,31.273 C37.525,31.321 36.853,31.386 36.197,31.463 C36.147,31.468 36.104,31.511 36.104,31.562 L36.104,35.078 C36.104,35.106 36.117,35.135 36.142,35.154 C36.160,35.172 36.183,35.177 36.210,35.177 L36.222,35.177 C36.876,35.105 37.546,35.042 38.212,34.990 C38.263,34.986 38.305,34.941 38.305,34.888 L38.305,34.479 ZM40.911,30.315 C40.890,30.292 40.859,30.281 40.831,30.283 C40.712,30.287 40.590,30.291 40.469,30.295 C40.411,30.298 40.369,30.343 40.369,30.398 C40.369,30.417 40.365,30.439 40.353,30.465 C40.340,30.488 40.322,30.515 40.299,30.540 C40.278,30.562 40.247,30.584 40.210,30.601 C40.175,30.616 40.138,30.627 40.074,30.630 C40.042,30.630 40.009,30.626 39.981,30.613 C39.951,30.599 39.921,30.581 39.896,30.558 C39.875,30.538 39.858,30.515 39.842,30.487 C39.829,30.463 39.823,30.442 39.821,30.420 C39.815,30.366 39.772,30.317 39.714,30.327 C39.588,30.333 39.464,30.339 39.337,30.347 C39.284,30.351 39.240,30.394 39.240,30.449 C39.240,30.532 39.256,30.613 39.290,30.696 C39.319,30.782 39.373,30.862 39.440,30.929 C39.503,30.997 39.592,31.055 39.703,31.098 C39.798,31.134 39.904,31.151 40.035,31.151 L40.096,31.151 C40.247,31.144 40.379,31.117 40.481,31.063 C40.584,31.014 40.671,30.950 40.734,30.876 C40.801,30.804 40.849,30.724 40.881,30.636 C40.911,30.552 40.932,30.471 40.938,30.394 C40.942,30.366 40.932,30.337 40.911,30.315 ZM41.389,31.222 C41.389,31.195 41.377,31.166 41.354,31.149 C41.335,31.130 41.304,31.126 41.282,31.120 C41.138,31.124 40.991,31.127 40.843,31.132 C40.807,31.132 40.771,31.153 40.754,31.186 C40.458,31.735 40.160,32.285 39.860,32.841 C39.732,33.087 39.600,33.336 39.470,33.585 L39.470,31.297 C39.470,31.269 39.457,31.243 39.438,31.222 C39.418,31.202 39.395,31.195 39.360,31.195 C39.209,31.202 39.062,31.210 38.911,31.220 C38.855,31.228 38.814,31.269 38.814,31.325 L38.814,34.838 C38.814,34.865 38.828,34.892 38.845,34.913 C38.864,34.933 38.891,34.943 38.919,34.943 C38.919,34.943 38.923,34.943 38.925,34.941 C39.068,34.933 39.209,34.923 39.354,34.915 C39.393,34.913 39.424,34.892 39.440,34.860 C39.753,34.276 40.067,33.696 40.381,33.112 L40.727,32.457 L40.727,34.747 C40.727,34.777 40.738,34.800 40.756,34.823 C40.777,34.841 40.810,34.862 40.831,34.853 L41.289,34.839 C41.342,34.838 41.389,34.790 41.389,34.737 C41.391,33.564 41.391,32.395 41.389,31.222 ZM45.573,31.476 C45.364,31.275 45.065,31.164 44.694,31.149 C44.334,31.135 43.975,31.125 43.618,31.117 C43.592,31.115 43.561,31.127 43.544,31.147 C43.525,31.168 43.513,31.194 43.513,31.220 L43.513,34.734 C43.513,34.791 43.555,34.838 43.613,34.838 C43.764,34.841 43.914,34.846 44.061,34.849 L44.065,34.849 C44.094,34.849 44.118,34.838 44.136,34.819 C44.158,34.802 44.167,34.772 44.167,34.744 L44.167,33.438 C44.349,33.442 44.529,33.450 44.706,33.458 C44.919,33.463 45.099,33.440 45.248,33.384 C45.398,33.328 45.524,33.245 45.617,33.142 C45.712,33.040 45.784,32.919 45.830,32.781 C45.869,32.650 45.893,32.509 45.893,32.359 C45.893,31.977 45.784,31.681 45.573,31.476 ZM48.690,32.561 C48.690,32.421 48.663,32.279 48.618,32.142 C48.570,32.002 48.496,31.871 48.400,31.753 C48.301,31.635 48.175,31.532 48.028,31.454 C47.875,31.372 47.697,31.323 47.492,31.303 C47.275,31.286 47.085,31.305 46.932,31.362 C46.777,31.418 46.651,31.502 46.553,31.611 C46.456,31.717 46.386,31.838 46.339,31.972 C46.299,32.104 46.273,32.232 46.273,32.365 L46.273,33.772 C46.273,33.929 46.299,34.082 46.337,34.230 C46.384,34.379 46.452,34.517 46.553,34.634 C46.647,34.756 46.773,34.854 46.926,34.935 C47.081,35.014 47.259,35.060 47.475,35.079 C47.522,35.082 47.572,35.087 47.621,35.087 C47.739,35.087 47.851,35.073 47.956,35.043 C48.103,35.004 48.233,34.939 48.344,34.846 C48.453,34.753 48.539,34.634 48.599,34.500 C48.657,34.363 48.690,34.204 48.690,34.031 L48.690,32.561 ZM49.937,32.502 C49.962,32.445 49.991,32.395 50.037,32.354 C50.076,32.316 50.132,32.288 50.198,32.269 C50.262,32.247 50.339,32.243 50.428,32.258 C50.573,32.279 50.694,32.329 50.781,32.407 C50.869,32.486 50.926,32.583 50.957,32.699 C50.971,32.751 51.025,32.784 51.079,32.773 C51.218,32.742 51.362,32.709 51.501,32.683 C51.532,32.675 51.555,32.658 51.568,32.632 C51.584,32.609 51.588,32.579 51.578,32.549 C51.509,32.306 51.369,32.105 51.166,31.946 C50.971,31.789 50.730,31.687 50.459,31.647 C50.275,31.623 50.101,31.630 49.956,31.667 C49.803,31.709 49.671,31.773 49.567,31.863 C49.462,31.957 49.383,32.072 49.327,32.210 C49.275,32.342 49.245,32.490 49.245,32.650 L49.245,34.123 C49.245,34.289 49.275,34.448 49.327,34.596 C49.385,34.741 49.466,34.872 49.565,34.984 C49.664,35.095 49.791,35.194 49.941,35.270 C50.084,35.344 50.248,35.397 50.428,35.421 C50.512,35.435 50.589,35.440 50.664,35.440 C50.849,35.440 51.009,35.407 51.150,35.338 C51.363,35.240 51.509,35.067 51.578,34.829 C51.596,34.779 51.568,34.728 51.528,34.703 L51.104,34.491 C51.075,34.478 51.044,34.476 51.016,34.489 C50.988,34.502 50.966,34.524 50.958,34.554 C50.926,34.654 50.876,34.728 50.794,34.775 C50.711,34.827 50.593,34.840 50.459,34.820 C50.366,34.805 50.289,34.779 50.220,34.741 C50.146,34.698 50.090,34.651 50.047,34.598 C49.999,34.539 49.963,34.476 49.937,34.406 C49.911,34.336 49.900,34.264 49.900,34.192 L49.900,32.699 C49.900,32.628 49.911,32.565 49.937,32.502 ZM52.708,32.941 C52.730,32.885 52.761,32.838 52.806,32.801 C52.842,32.766 52.896,32.738 52.963,32.725 C53.026,32.705 53.104,32.705 53.191,32.725 C53.336,32.751 53.454,32.809 53.543,32.894 C53.632,32.979 53.688,33.078 53.722,33.196 C53.735,33.245 53.783,33.275 53.841,33.271 L54.255,33.203 C54.286,33.199 54.316,33.180 54.328,33.157 C54.343,33.133 54.347,33.102 54.339,33.072 C54.267,32.827 54.132,32.617 53.933,32.448 C53.737,32.282 53.498,32.169 53.231,32.119 C53.048,32.079 52.879,32.079 52.730,32.112 C52.579,32.144 52.446,32.203 52.344,32.288 C52.238,32.374 52.155,32.489 52.101,32.621 C52.047,32.751 52.020,32.900 52.020,33.064 L52.020,34.538 C52.020,34.704 52.047,34.865 52.101,35.012 C52.159,35.159 52.237,35.294 52.337,35.411 C52.434,35.529 52.560,35.626 52.705,35.712 C52.850,35.795 53.013,35.856 53.191,35.888 C53.299,35.911 53.404,35.922 53.497,35.922 C53.651,35.922 53.789,35.894 53.912,35.843 C54.124,35.751 54.267,35.586 54.339,35.350 C54.354,35.299 54.333,35.252 54.292,35.227 C54.153,35.150 54.010,35.069 53.871,34.991 C53.841,34.977 53.811,34.975 53.781,34.986 C53.753,34.999 53.731,35.023 53.722,35.052 C53.692,35.150 53.642,35.218 53.561,35.262 C53.480,35.307 53.363,35.314 53.231,35.286 C53.143,35.272 53.061,35.240 52.991,35.197 C52.920,35.152 52.862,35.101 52.819,35.039 C52.769,34.980 52.736,34.915 52.708,34.846 C52.684,34.773 52.670,34.700 52.670,34.627 L52.670,33.133 C52.670,33.066 52.684,33.003 52.708,32.941 ZM57.374,33.192 C57.374,33.146 57.340,33.106 57.298,33.094 C57.156,33.055 57.011,33.018 56.870,32.977 C56.825,32.966 56.779,32.985 56.755,33.023 C56.465,33.487 56.172,33.952 55.882,34.420 L55.501,35.054 L55.501,32.716 C55.501,32.667 55.467,32.625 55.421,32.615 C55.272,32.580 55.125,32.545 54.978,32.514 C54.947,32.506 54.916,32.514 54.891,32.532 C54.863,32.552 54.850,32.583 54.850,32.613 L54.850,36.128 C54.850,36.175 54.883,36.219 54.932,36.227 C55.075,36.260 55.214,36.292 55.355,36.324 C55.400,36.337 55.445,36.317 55.469,36.280 C55.774,35.786 56.081,35.292 56.387,34.801 L56.725,34.251 L56.725,36.587 C56.725,36.635 56.755,36.675 56.800,36.688 C56.947,36.726 57.094,36.765 57.241,36.807 C57.251,36.810 57.260,36.810 57.268,36.810 C57.294,36.810 57.315,36.803 57.330,36.791 C57.357,36.771 57.374,36.739 57.374,36.709 L57.374,33.192 ZM59.921,37.536 C59.921,37.579 59.949,37.621 59.990,37.636 C60.136,37.683 60.284,37.732 60.430,37.781 C60.442,37.786 60.451,37.786 60.461,37.786 C60.482,37.786 60.505,37.779 60.522,37.767 C60.548,37.747 60.565,37.718 60.565,37.683 L60.565,34.171 C60.565,34.126 60.536,34.088 60.496,34.073 C60.356,34.026 60.213,33.976 60.071,33.931 C60.027,33.916 59.977,33.933 59.953,33.972 C59.662,34.418 59.379,34.865 59.088,35.320 L58.716,35.924 L58.716,33.576 C58.716,33.534 58.681,33.490 58.637,33.476 L58.205,33.350 C58.172,33.341 58.140,33.346 58.114,33.368 C58.086,33.385 58.070,33.418 58.070,33.449 L58.070,36.963 C58.070,37.007 58.103,37.048 58.145,37.063 C58.287,37.102 58.426,37.144 58.565,37.187 C58.610,37.198 58.658,37.182 58.685,37.144 C58.985,36.665 59.289,36.193 59.589,35.721 L59.921,35.190 L59.921,37.536 ZM59.919,39.256 C54.282,37.533 48.388,36.673 42.491,36.673 C36.596,36.673 30.700,37.534 25.066,39.255 L26.987,39.438 L26.987,38.708 C27.324,38.617 27.795,38.504 28.133,38.420 L28.133,61.686 C28.133,66.836 30.559,67.876 34.247,67.876 L36.967,67.876 C39.157,67.876 40.856,68.496 42.015,69.718 L42.427,70.151 L42.837,69.718 C43.998,68.496 45.693,67.876 47.887,67.876 L50.602,67.876 C54.562,67.876 56.852,66.868 56.852,61.719 L56.852,38.420 C57.234,38.515 57.617,38.607 57.997,38.708 L57.997,39.438 L59.919,39.256 ZM52.146,64.069 C51.908,64.033 51.780,64.159 51.477,64.132 C51.168,64.102 50.800,63.708 50.518,63.292 C50.235,62.880 49.947,63.082 49.633,62.269 C49.340,61.498 48.252,60.800 47.214,59.326 C46.708,58.609 46.622,58.127 46.466,58.007 C46.105,57.768 45.514,57.212 44.922,56.282 C44.828,56.125 44.601,56.291 44.477,56.169 C44.257,55.973 43.829,55.034 43.514,54.400 C43.287,53.932 43.153,53.315 43.180,54.307 C43.194,54.654 43.270,54.785 43.363,54.929 C43.547,55.200 43.319,55.649 43.401,55.770 C43.755,56.285 43.744,56.578 43.870,56.731 C43.927,56.801 44.140,56.785 44.338,56.933 C45.182,57.590 45.736,58.688 46.432,59.692 C46.688,60.065 46.835,59.625 47.125,60.413 C47.298,60.885 48.542,61.477 48.348,62.551 C48.308,62.727 48.281,62.933 48.352,63.087 C48.514,63.489 48.816,63.947 48.748,63.995 C48.685,64.033 48.273,63.516 47.924,63.362 C47.565,63.210 47.143,63.361 46.737,63.068 C46.348,62.786 46.361,62.139 46.111,62.049 C45.876,61.968 45.816,62.012 45.641,61.535 C45.517,61.204 45.241,61.451 45.000,61.353 C44.303,61.067 42.042,59.763 41.388,58.663 C41.096,58.162 40.409,57.918 40.338,57.730 C40.045,56.946 39.918,57.083 39.583,56.687 C39.341,56.396 39.351,55.227 39.163,54.695 C38.754,55.344 38.096,56.139 37.513,56.418 C37.455,56.444 37.386,56.464 37.314,56.483 C37.116,60.030 36.915,64.224 36.899,64.658 C36.866,65.588 36.844,65.913 36.328,65.729 C35.714,65.509 35.135,65.031 35.009,64.695 C34.913,64.426 34.878,63.918 34.935,63.543 C34.966,63.321 35.059,63.134 35.342,63.553 C35.669,64.029 35.959,64.388 36.199,64.610 C36.397,64.784 36.452,64.569 36.456,64.459 L36.820,56.569 C36.480,56.592 36.130,56.567 35.927,56.491 C35.694,56.402 35.702,56.006 35.823,55.924 C36.034,55.787 36.141,55.649 36.145,55.612 C36.167,55.479 36.046,55.410 35.868,55.235 C35.640,55.018 36.438,53.841 36.912,53.227 L36.890,52.402 C36.890,52.402 35.770,52.414 35.174,50.318 C35.152,50.238 35.004,50.272 34.913,50.117 C34.766,49.883 34.660,49.537 34.601,49.238 C34.592,49.194 34.683,49.007 34.671,48.888 C34.660,48.774 34.522,48.453 34.496,48.370 C34.411,48.108 34.837,48.012 34.837,48.012 C34.729,47.299 34.587,45.798 34.310,45.560 C34.035,45.326 35.063,42.981 36.826,41.692 C37.077,41.511 37.940,41.485 38.592,41.512 C38.638,41.347 38.566,41.243 38.634,40.690 C38.678,40.303 38.775,39.995 38.869,39.738 C38.927,39.595 39.072,39.561 39.166,39.435 C39.731,38.662 40.235,38.638 40.621,38.892 C40.758,38.985 41.045,39.024 41.245,39.021 C41.548,39.015 41.672,38.925 41.845,39.122 C41.962,39.249 42.146,39.716 42.206,40.135 C42.222,40.257 42.344,40.303 42.376,40.415 C42.481,40.719 42.253,41.864 42.194,42.334 C43.872,43.515 44.964,44.392 45.164,45.284 C45.241,45.632 45.340,46.199 45.140,47.264 C45.134,47.318 45.838,47.607 45.838,48.035 C45.838,48.496 46.708,48.858 46.858,49.371 C47.468,51.536 48.184,52.921 48.553,53.681 C48.682,53.928 48.322,54.311 48.366,54.573 C48.420,54.859 48.861,55.396 48.941,56.256 C48.976,56.621 49.214,56.734 49.517,57.164 C50.396,58.406 50.688,59.688 51.082,60.696 C51.192,60.989 51.106,61.281 51.425,61.604 C52.061,62.232 52.626,62.365 52.792,62.784 C52.897,63.028 52.750,63.334 52.715,63.622 C52.691,63.820 53.226,64.597 53.170,64.631 C53.117,64.658 52.421,64.110 52.146,64.069 ZM37.064,46.811 C37.064,46.811 36.911,47.648 36.912,48.093 C36.912,48.200 37.003,48.235 37.051,48.314 C37.096,48.397 37.062,48.841 37.144,48.974 C37.225,49.103 38.053,50.331 38.053,50.331 C38.053,50.331 37.096,47.591 37.064,46.811 ZM47.873,34.383 C47.826,34.424 47.772,34.451 47.712,34.469 C47.642,34.487 47.572,34.495 47.500,34.485 C47.397,34.475 47.308,34.451 47.234,34.413 C47.161,34.372 47.102,34.324 47.057,34.268 C47.012,34.208 46.980,34.139 46.961,34.063 C46.936,33.982 46.924,33.893 46.924,33.801 L46.920,32.412 C46.920,32.353 46.930,32.291 46.947,32.229 C46.965,32.165 46.990,32.112 47.034,32.061 C47.073,32.012 47.129,31.973 47.200,31.939 C47.245,31.915 47.312,31.903 47.389,31.903 C47.412,31.903 47.437,31.903 47.467,31.907 C47.579,31.917 47.667,31.946 47.735,31.992 C47.809,32.043 47.867,32.097 47.906,32.158 C47.950,32.222 47.979,32.284 47.995,32.350 C48.012,32.414 48.020,32.474 48.024,32.519 L48.024,34.023 C48.024,34.106 48.007,34.176 47.981,34.236 C47.952,34.297 47.914,34.346 47.873,34.383 ZM45.120,32.712 C45.079,32.760 45.029,32.793 44.957,32.823 C44.899,32.844 44.824,32.855 44.733,32.855 L44.690,32.855 C44.515,32.847 44.343,32.842 44.167,32.838 L44.167,31.731 C44.340,31.736 44.506,31.743 44.675,31.750 C44.876,31.757 45.021,31.812 45.104,31.908 C45.189,32.017 45.228,32.153 45.228,32.333 C45.228,32.406 45.220,32.477 45.201,32.550 C45.189,32.612 45.160,32.666 45.120,32.712 ZM28.783,35.816 C28.733,35.876 28.673,35.927 28.608,35.970 C28.542,36.011 28.472,36.043 28.399,36.061 C28.298,36.087 28.213,36.096 28.145,36.081 C28.079,36.067 28.028,36.043 27.991,36.006 C27.953,35.968 27.922,35.917 27.905,35.848 C27.885,35.778 27.876,35.697 27.876,35.601 L27.870,34.215 C27.870,34.156 27.880,34.089 27.895,34.018 C27.911,33.947 27.941,33.877 27.986,33.808 C28.028,33.740 28.087,33.670 28.158,33.614 C28.232,33.554 28.323,33.511 28.434,33.482 C28.492,33.465 28.547,33.459 28.590,33.459 C28.629,33.459 28.660,33.463 28.684,33.473 C28.748,33.497 28.801,33.527 28.834,33.570 C28.874,33.612 28.900,33.661 28.915,33.714 C28.932,33.775 28.943,33.831 28.943,33.875 L28.943,35.378 C28.943,35.460 28.927,35.541 28.900,35.615 C28.871,35.690 28.830,35.757 28.783,35.816 ZM67.480,15.057 L67.226,15.258 C66.610,15.739 65.734,16.456 65.823,17.003 C65.916,17.580 66.873,18.060 67.194,18.142 C67.686,18.274 66.607,18.515 66.169,19.137 C65.794,19.669 66.121,20.616 65.734,20.485 C63.493,19.716 62.628,17.025 63.015,16.195 C63.252,15.686 63.714,15.355 64.163,15.025 C64.561,14.741 64.934,14.466 65.134,14.096 C65.433,13.544 64.902,12.760 64.236,12.219 C63.142,11.329 62.042,11.227 61.607,11.506 C61.469,11.594 61.439,11.771 61.450,11.968 C61.454,12.314 61.541,12.746 61.639,13.204 C61.908,14.479 61.349,17.128 58.671,17.128 C60.250,16.810 60.169,14.579 59.683,13.224 C59.439,12.556 59.207,11.931 59.145,11.382 C59.096,10.926 59.202,10.557 59.449,10.310 C59.599,10.166 59.794,10.081 60.015,10.039 L60.015,10.026 C60.015,10.026 60.592,9.964 60.699,9.958 C61.232,9.924 61.660,9.775 62.032,9.638 C62.632,9.430 63.201,9.225 63.756,9.805 C63.872,9.920 63.992,10.054 64.123,10.193 C64.767,10.886 65.561,11.745 66.617,12.230 C67.102,12.450 67.231,12.510 67.231,12.510 L67.231,12.515 C67.280,12.540 67.337,12.560 67.392,12.586 C68.079,12.930 68.261,13.348 68.290,13.644 C68.323,13.965 68.210,14.473 67.480,15.057 ZM53.629,16.686 L53.555,16.686 L50.600,16.686 C50.249,16.230 49.167,14.734 49.167,13.254 C49.167,12.628 49.441,12.109 49.995,11.664 C50.270,11.450 50.911,11.055 52.094,10.855 L53.594,13.352 L55.089,10.855 C56.278,11.055 56.911,11.450 57.185,11.664 C57.748,12.109 58.019,12.628 58.019,13.254 C58.019,14.734 56.940,16.230 56.582,16.686 L53.629,16.686 ZM52.346,8.927 C52.346,8.927 52.819,8.227 53.594,8.227 C54.363,8.227 54.834,8.927 54.834,8.927 L53.594,11.187 L52.346,8.927 ZM43.630,12.352 L46.097,12.352 C46.347,14.476 47.189,15.836 48.565,16.686 C46.190,16.568 44.292,14.570 43.630,12.352 ZM42.528,10.894 L42.445,10.894 L38.850,10.894 C38.415,10.340 37.102,8.520 37.102,6.718 C37.102,5.959 37.432,5.327 38.114,4.785 C38.448,4.521 39.223,4.042 40.665,3.800 L42.488,6.835 L44.306,3.800 C45.751,4.042 46.525,4.521 46.859,4.785 C47.544,5.327 47.872,5.959 47.872,6.718 C47.872,8.520 46.559,10.340 46.125,10.894 L42.528,10.894 ZM40.779,0.958 C40.779,0.958 41.427,-0.001 42.487,-0.001 C43.547,-0.001 44.191,0.958 44.191,0.958 L42.487,4.062 L40.779,0.958 ZM38.878,12.352 L41.346,12.352 C40.682,14.570 38.785,16.568 36.409,16.686 C37.782,15.836 38.623,14.476 38.878,12.352 ZM31.421,16.686 L31.353,16.686 L28.397,16.686 C28.038,16.230 26.957,14.734 26.957,13.251 C26.957,12.626 27.229,12.106 27.790,11.661 C28.066,11.444 28.702,11.053 29.889,10.848 L31.386,13.348 L32.886,10.848 C34.074,11.053 34.709,11.444 34.984,11.661 C35.544,12.106 35.819,12.626 35.819,13.251 C35.819,14.734 34.738,16.230 34.377,16.686 L31.421,16.686 ZM30.145,8.927 C30.145,8.927 30.616,8.227 31.386,8.227 C32.158,8.227 32.630,8.927 32.630,8.927 L31.386,11.187 L30.145,8.927 ZM28.795,23.762 L25.273,23.762 L24.444,24.709 L21.239,21.888 L22.992,19.879 L26.340,19.879 L24.636,18.214 L35.040,18.214 C36.633,18.214 40.098,18.179 39.838,16.291 C41.004,18.572 39.552,20.100 37.180,20.345 C37.809,21.163 40.163,22.138 40.700,21.025 C40.808,22.588 39.195,22.781 39.195,22.781 C39.195,22.781 41.088,24.934 42.487,27.460 C43.883,24.934 45.777,22.781 45.777,22.781 C45.777,22.781 44.166,22.588 44.273,21.025 C44.808,22.138 47.163,21.163 47.791,20.345 C45.419,20.100 43.968,18.572 45.137,16.291 C44.873,18.179 48.337,18.214 49.930,18.214 L60.338,18.214 L58.632,19.879 L61.978,19.879 L63.737,21.888 L60.528,24.709 L59.698,23.762 L56.174,23.762 C56.070,23.858 55.974,23.950 55.886,24.033 C55.801,24.110 55.728,24.185 55.647,24.261 C58.368,24.451 61.495,27.300 62.634,25.256 C61.945,27.744 59.356,27.407 57.781,26.470 C57.781,26.470 58.037,27.252 57.405,27.840 C57.304,26.325 53.539,26.815 53.539,26.815 C52.883,27.537 52.371,28.382 52.020,29.291 C48.894,28.797 45.712,28.547 42.491,28.547 C39.267,28.547 36.083,28.797 32.955,29.292 C32.603,28.383 32.092,27.538 31.435,26.815 C31.435,26.815 27.668,26.325 27.568,27.840 C26.932,27.252 27.193,26.470 27.193,26.470 C25.614,27.407 23.026,27.744 22.336,25.256 C23.475,27.300 26.601,24.451 29.326,24.261 C29.247,24.185 29.169,24.110 29.088,24.033 C29.001,23.950 28.901,23.858 28.795,23.762 ZM56.432,21.139 L57.480,20.122 L52.999,20.122 L56.432,21.139 ZM31.972,20.122 L27.493,20.122 L28.541,21.139 L31.972,20.122 ZM26.300,17.128 C23.622,17.128 23.062,14.480 23.332,13.205 C23.430,12.747 23.520,12.314 23.524,11.968 C23.528,11.771 23.499,11.593 23.367,11.506 C22.927,11.227 21.828,11.329 20.734,12.219 C20.065,12.761 19.539,13.544 19.836,14.096 C20.036,14.465 20.411,14.741 20.810,15.026 C21.256,15.355 21.720,15.686 21.959,16.195 C22.345,17.026 21.479,19.715 19.237,20.486 C18.853,20.615 19.177,19.669 18.803,19.137 C18.366,18.515 17.285,18.274 17.779,18.142 C18.101,18.059 19.055,17.581 19.151,17.003 C19.237,16.456 18.362,15.738 17.746,15.258 L17.495,15.056 C16.760,14.472 16.649,13.965 16.683,13.643 C16.714,13.349 16.895,12.930 17.578,12.586 C17.635,12.559 17.688,12.540 17.746,12.515 L17.744,12.510 C17.744,12.510 17.867,12.450 18.352,12.230 C19.413,11.745 20.205,10.886 20.849,10.193 C20.978,10.054 21.099,9.920 21.213,9.806 C21.772,9.225 22.338,9.430 22.938,9.638 C23.314,9.775 23.737,9.924 24.275,9.959 C24.380,9.964 24.955,10.026 24.955,10.026 L24.955,10.039 C25.180,10.080 25.374,10.167 25.518,10.312 C25.770,10.558 25.874,10.926 25.826,11.382 C25.765,11.931 25.535,12.557 25.290,13.224 C24.803,14.579 24.722,16.810 26.300,17.128 Z" />
</svg>
