<svg xmlns="http://www.w3.org/2000/svg" xmlns:xlink="http://www.w3.org/1999/xlink" viewBox="0 0 60.38 62.05"><defs><style>.cls-1{fill:none;}.cls-2{fill:#eec149;}.cls-3{clip-path:url(#clip-path);}.cls-4{fill:#c94d44;}.cls-5{fill:#4e62a5;}.cls-6,.cls-8{fill:#fff;}.cls-7{fill:#984b42;}.cls-8{fill-rule:evenodd;}.cls-9{fill:#cb4b44;}</style><clipPath id="clip-path"><path class="cls-1" d="M19.57,23.71V43.53c0,4.47,2.49,5.09,5.18,5.09h1.78a3.33,3.33,0,0,1,2.5.86,3.14,3.14,0,0,1,.49.36l.18.17.05.05.22.26a3.15,3.15,0,0,1,.56-.44,3.09,3.09,0,0,1,.53-.26,3.21,3.21,0,0,1,2.62-1h1.77c2.69,0,5.18-.62,5.18-5.09V23.71Z"/></clipPath></defs><g id="Слой_2" data-name="Слой 2"><g id="Слой_1-2" data-name="Слой 1"><path class="cls-2" d="M34.63,47.41v0L30.22,50s1.29-.41,0,1c-.07-.7-2.84-2.26-4.23-3.64h-.25v0l-7.08,7A9.8,9.8,0,0,0,18.74,57a9.7,9.7,0,0,0,2.5.25l4.6-7.3s.9.09.64.53l-3.93,7.65a7,7,0,0,0,1.11,2.23,13,13,0,0,0,2.45-.8l2.69-8.87.68.46-1.88,9a7.15,7.15,0,0,0,2.56,1.87h0a7.14,7.14,0,0,0,2.56-1.87l-1.88-9,.68-.46,2.69,8.87a13,13,0,0,0,2.45.8,7.06,7.06,0,0,0,1.11-2.23l-3.93-7.65c-.26-.44.64-.53.64-.53l4.6,7.3a9.7,9.7,0,0,0,2.5-.25,9.73,9.73,0,0,0,.09-2.55Z"/><path class="cls-2" d="M39.9,16.95h2.5l.59.68,2.28-2L44,14.18H41.65L42.86,13H35.47c-1.13,0-3.59,0-3.4-1.37-.83,1.63.2,2.72,1.88,2.89-.45.58-2.12,1.28-2.5.48a1.19,1.19,0,0,0,1.07,1.25,21.49,21.49,0,0,0-2.34,3.34,21.61,21.61,0,0,0-2.34-3.34A1.19,1.19,0,0,0,28.91,15c-.38.79-2.05.1-2.5-.48,1.68-.18,2.72-1.26,1.89-2.89C28.49,13,26,13,24.9,13H17.51l1.21,1.19H16.34L15.1,15.61l2.28,2,.59-.68h2.5l.21.19.17.16c-1.94.14-4.15,2.17-5,.71.49,1.77,2.33,1.53,3.45.87a1,1,0,0,0,.27,1c.07-1.08,2.75-.73,2.75-.73a5.63,5.63,0,0,1,1,6l1.6-1A10.51,10.51,0,0,1,25,26h.5a10.84,10.84,0,0,0-.09-1.88l.71-1a11.19,11.19,0,0,1,.38,2.9h1.23c0-.94-.17-2-.23-2.4l.62-.77A15,15,0,0,1,28.7,26h1.19a24.51,24.51,0,0,0-.37-2.45l.66-.13.66.13A24.34,24.34,0,0,0,30.48,26h1.18a15.18,15.18,0,0,1,.54-3.16l.62.77c-.06.41-.2,1.45-.23,2.4h1.22a11.08,11.08,0,0,1,.38-2.9l.71,1A11.2,11.2,0,0,0,34.82,26h.5a10.58,10.58,0,0,1,.08-1.91l1.6,1a5.63,5.63,0,0,1,1-6s2.67-.35,2.74.73a1,1,0,0,0,.27-1c1.12.67,3,.91,3.45-.87-.81,1.46-3-.57-5-.71l.17-.16ZM20.28,15.08l-.74-.73h3.18Zm17.37-.73h3.18l-.74.73Z"/><path class="cls-2" d="M58,28.56a5.77,5.77,0,0,0,2.37-5.31,28.55,28.55,0,0,1-10.41,3l.13-1.3a28.36,28.36,0,0,0,9.08-3.68,6.87,6.87,0,0,0,.26-6.52,27.34,27.34,0,0,1-9.52,7.45l0-.11a12.06,12.06,0,0,0-.25-1.35c.27-.17,5.55-3.37,7.67-7.3,0,0,.72-4.1-2.44-6.51a26.6,26.6,0,0,1-6.36,11,6.6,6.6,0,0,0-.94-1.25,10.63,10.63,0,0,1-4.36,6,4.55,4.55,0,0,1,1.09,2.5c.27,2.53-1.57,3.75-4.1,4-.54.05-1.05,1.06-1.54,1,0,0,.38,6.62.6,6.6a14.06,14.06,0,0,0,3.62-1.14,42.84,42.84,0,0,0,2.16,5,5.78,5.78,0,0,0,4.31-.68,42.43,42.43,0,0,1-4.59-5.38l.74-.52A33.93,33.93,0,0,0,50,38.4s2.89.27,4.15-2.05A38.65,38.65,0,0,1,47,32.54l.63-.78a37,37,0,0,0,6.86,2.78,4.68,4.68,0,0,0,3.82-4,30.46,30.46,0,0,1-9.42-.87l.45-1.06A26.87,26.87,0,0,0,58,28.56Z"/><path class="cls-2" d="M41.67,12.22a2.25,2.25,0,0,0,2.11-2.8,4.88,4.88,0,0,1-.13-.88.34.34,0,0,1,.11-.33,1.85,1.85,0,0,1,1.87.51c.47.39.85.94.64,1.34a2.19,2.19,0,0,1-.69.66,2.33,2.33,0,0,0-.82.83,2.94,2.94,0,0,0,1.93,3.06c.27.09,0-.58.31-1s1.08-.62.73-.71-.91-.4-1-.81.56-.9,1-1.24l.18-.14c.52-.42.6-.78.58-1s-.15-.51-.64-.75l-.11-.05h0l-.44-.2a5.86,5.86,0,0,1-1.77-1.45L45.29,7c-.39-.41-.8-.27-1.22-.12a3.25,3.25,0,0,1-.95.23l-.49,0h0a.77.77,0,0,0-.4.19.9.9,0,0,0-.22.76,6.19,6.19,0,0,0,.38,1.31C42.74,10.4,42.8,12,41.67,12.22Z"/><path class="cls-2" d="M12.44,10.74l.18.14c.44.34,1.06.85,1,1.24s-.75.75-1,.81.42.27.73.71,0,1.05.31,1a2.94,2.94,0,0,0,1.93-3.06,2.37,2.37,0,0,0-.82-.83,2.18,2.18,0,0,1-.69-.66c-.21-.39.16-1,.64-1.34a1.86,1.86,0,0,1,1.87-.51.37.37,0,0,1,.11.33,4.92,4.92,0,0,1-.14.88,2.24,2.24,0,0,0,2.11,2.8C17.57,12,17.63,10.4,18,9.43a6.16,6.16,0,0,0,.38-1.31.9.9,0,0,0-.22-.76.73.73,0,0,0-.4-.19h0l-.48,0a3.28,3.28,0,0,1-.95-.23c-.43-.15-.83-.3-1.22.12l-.26.28A5.82,5.82,0,0,1,13,8.72l-.43.2h0L12.5,9a1,1,0,0,0-.64.75C11.84,10,11.92,10.32,12.44,10.74Z"/><path class="cls-2" d="M29.37,8.81H27.62a3.89,3.89,0,0,1-1.75,3.09A4.14,4.14,0,0,0,29.37,8.81Z"/><path class="cls-2" d="M32.75,8.81H31a4.14,4.14,0,0,0,3.5,3.09A3.87,3.87,0,0,1,32.75,8.81Z"/><path class="cls-2" d="M30.15,7.77h2.61a5.51,5.51,0,0,0,1.24-3,1.7,1.7,0,0,0-.72-1.38,4,4,0,0,0-1.81-.7L30.18,4.88,28.89,2.71a4,4,0,0,0-1.81.7,1.7,1.7,0,0,0-.72,1.38,5.51,5.51,0,0,0,1.24,3Z"/><path class="cls-2" d="M31.39.68A1.41,1.41,0,0,0,29,.68L30.18,2.9Z"/><path class="cls-2" d="M38,11.9h2.15a4.53,4.53,0,0,0,1-2.45,1.39,1.39,0,0,0-.59-1.13,3.24,3.24,0,0,0-1.49-.58L38.07,9.52,37,7.74a3.28,3.28,0,0,0-1.49.58,1.4,1.4,0,0,0-.59,1.13,4.56,4.56,0,0,0,1,2.45Z"/><path class="cls-2" d="M39,6.37a1,1,0,0,0-1.77,0L38.07,8Z"/><path class="cls-2" d="M23.18,6.37a1,1,0,0,0-1.76,0L22.3,8Z"/><path class="cls-2" d="M22.28,11.9h2.15a4.51,4.51,0,0,0,1-2.45,1.4,1.4,0,0,0-.59-1.13,3.28,3.28,0,0,0-1.49-.58L22.3,9.52,21.24,7.74a3.29,3.29,0,0,0-1.49.58,1.4,1.4,0,0,0-.59,1.13,4.52,4.52,0,0,0,1,2.45Z"/><path class="cls-2" d="M2.41,28.56a26.86,26.86,0,0,0,8.65.1l.45,1.06a30.45,30.45,0,0,1-9.42.87,4.67,4.67,0,0,0,3.83,4,37,37,0,0,0,6.86-2.78l.63.78a38.74,38.74,0,0,1-7.17,3.81c1.26,2.32,4.16,2.05,4.16,2.05A34,34,0,0,0,14.93,34l.74.52a42.41,42.41,0,0,1-4.59,5.38,5.77,5.77,0,0,0,4.31.68,42.6,42.6,0,0,0,2.16-5,14.12,14.12,0,0,0,3.62,1.14c.21,0,.6-6.6.6-6.6-.49.11-1-.9-1.54-1-2.53-.27-4.37-1.49-4.1-4a4.55,4.55,0,0,1,1.09-2.5,10.63,10.63,0,0,1-4.36-6,6.48,6.48,0,0,0-.94,1.25A26.58,26.58,0,0,1,5.55,7C2.38,9.39,3.1,13.49,3.1,13.49c2.12,3.93,7.39,7.13,7.67,7.3a12.22,12.22,0,0,0-.25,1.35l0,.11A27.36,27.36,0,0,1,1,14.79a6.86,6.86,0,0,0,.26,6.52A28.33,28.33,0,0,0,10.3,25l.13,1.3A28.56,28.56,0,0,1,0,23.25,5.77,5.77,0,0,0,2.41,28.56Z"/><path class="cls-2" d="M14.3,52.07c.56-.49,3-2.55,5.13-2.74-.88-4,1.08-5.43,2.66-3.63A3.71,3.71,0,0,1,23,47.6l1.92,0L25,39.72,21,39.65a3,3,0,0,1,.17.6c-3.3-.11-4.65.94-5,2.31h0l0,.11,0,.13c0,.09,0,.17,0,.27s0,0,0,.07c-.18,1.7.55,4.2-.45,4.33A1.11,1.11,0,0,0,17,47.11a14.25,14.25,0,0,0,.85,1.44,7.23,7.23,0,0,1-2.68.65,4,4,0,0,1-3.35-1.69c-.68-.83-1.43-1.11-2.13,0L6.87,44.7a.74.74,0,0,0-.18-.52A2.61,2.61,0,0,0,5.2,39.89c-.52,0,.53,1.72-.4,2-.44.13-.82-.69-.16-1.08-.81-.15-1.73.61-1.23,1.11-.5-.51-1.26.41-1.12,1.23.39-.66,1.21-.28,1.07.17-.28.93-2-.13-2,.39a2.61,2.61,0,0,0,4.28,1.51.75.75,0,0,0,.52.19l2.63,2.75h0a1,1,0,0,0,.08,1.72c-.39,1.35.67,2.65,4.22,2.75l2.58,2.69c.36.36.65.45.81.43h0a.67.67,0,0,0,.37-.19.7.7,0,0,0,.21-.37,1.09,1.09,0,0,0-.41-.82Z"/><path class="cls-2" d="M51.47,46.48l-.59,1.08-.94,1.72L49,47.56l-.59-1.08a3.8,3.8,0,0,0-2.26,3.23,30.71,30.71,0,0,0-3.54-1.2,13.38,13.38,0,0,0,.8-1.4,1.11,1.11,0,0,0,1.46.35c-1-.14-.28-2.63-.45-4.33v-.07c0-.09,0-.18,0-.27l0-.13a1,1,0,0,0,0-.11h0c-.38-1.38-1.74-2.42-5-2.31a3.26,3.26,0,0,1,.17-.6l-4.05.07.14,7.92,1.92,0a3.69,3.69,0,0,1,.88-1.91c1.59-1.8,3.55-.33,2.67,3.63a7.52,7.52,0,0,1,5.54,3.57c.95,1.59,3.27,2.65,4.14,1,.95.45,3.09-.58,2.66-2.15v0a3.77,3.77,0,0,0-1.84-5.23Z"/><path class="cls-2" d="M51.23,44.66a1.5,1.5,0,0,0-2.57,0L49.94,47Z"/><circle class="cls-2" cx="2.42" cy="40.81" r="0.71" transform="translate(-27.52 12.98) rotate(-43.7)"/><circle class="cls-2" cx="2.35" cy="41.68" r="0.56" transform="translate(-28.17 13.19) rotate(-43.75)"/><circle class="cls-2" cx="3.26" cy="40.81" r="0.56" transform="translate(-27.28 13.55) rotate(-43.69)"/><g class="cls-3"><path class="cls-4" d="M40.44,31.16c-8.56,1.45-18.36,9.34-20.56,16.39.63,1.24,1.9,1.51,3.83,1.51h2.06a5.44,5.44,0,0,1,4.14,1.54,5.45,5.45,0,0,1,4.14-1.54h2.06c2.92,0,4.31-.64,4.31-4.27Z"/><path class="cls-5" d="M31.46,22.83c-5.51.9-10.32,3.78-12.06,8.61V44.8h0c0,.21,0,.41,0,.61v.07a5.13,5.13,0,0,0,.47,2.06c2.18-7,11.81-14.77,20.3-16.34l.25,0V24A47,47,0,0,0,31.46,22.83Z"/><path class="cls-6" d="M19.4,35.16c2.48-6.9,9.35-11,17.21-12.31A67.5,67.5,0,0,0,19.4,24.53Z"/></g><path class="cls-7" d="M41.12,27.38v1.77a31.56,31.56,0,0,1,3.72-.38l-2.28-1.14S41.54,27.42,41.12,27.38Z"/><path class="cls-7" d="M19.25,27.38v1.77a31.56,31.56,0,0,0-3.72-.38l2.28-1.14S18.84,27.42,19.25,27.38Z"/><path class="cls-2" d="M41.2,22.66h-22V44.06c0,4.22,2.05,5.09,5.13,5.09h2c1.9,0,3.17.7,3.79,2.08l.13.3.13-.3c.62-1.38,1.9-2.08,3.79-2.08h1.95c3.08,0,5.13-.87,5.13-5.09ZM40.38,44c0,3.67-1.63,4.39-4.44,4.39H34a4.71,4.71,0,0,0-3.59,1.31l-.29.31-.29-.31a4.71,4.71,0,0,0-3.58-1.31H24.33c-2.81,0-4.44-.72-4.44-4.39V23.44H40.38Z"/><path class="cls-8" d="M24.38,32.5a5.6,5.6,0,0,1,.37,1.75s-.3.07-.24.26a3,3,0,0,1,.12.37c0,.08-.06.22,0,.25a2,2,0,0,0,.22.63c.07.11.17.09.19.14.42,1.5,1.22,1.49,1.22,1.49l0,.59c-.34.44-.9,1.28-.74,1.43s.21.18.2.27a.57.57,0,0,1-.23.22.27.27,0,0,0,.07.4,1.72,1.72,0,0,0,.63.06L25.9,46c0,.08,0,.23-.18.11a4.73,4.73,0,0,1-.61-.75c-.2-.3-.27-.17-.29,0a2,2,0,0,0,.05.82,1.71,1.71,0,0,0,.94.74c.37.13.38-.1.41-.76,0-.31.15-3.3.29-5.83l.14,0A3.58,3.58,0,0,0,27.82,39c.13.38.13,1.21.3,1.42s.33.18.54.74c0,.13.54.31.75.67A7.13,7.13,0,0,0,32,43.76c.17.07.37-.11.46.13s.17.31.33.37.17.53.44.73.59.1.84.21.54.48.58.45-.17-.36-.28-.65a.64.64,0,0,1,0-.38c.14-.77-.74-1.19-.87-1.52-.21-.56-.31-.25-.49-.51a8.74,8.74,0,0,0-1.49-2c-.14-.11-.29-.09-.33-.14a5.32,5.32,0,0,0-.33-.69c-.06-.09.1-.41,0-.6a.74.74,0,0,1-.13-.44c0-.71.08-.27.24.07a7.44,7.44,0,0,0,.68,1.26c.09.09.25,0,.32.08A4.23,4.23,0,0,0,33,41.37c.11.09.17.43.53.94.74,1.05,1.51,1.55,1.72,2.1s.43.44.63.73.46.58.68.6.31-.07.47,0,.69.42.73.4-.34-.58-.32-.72.13-.42.05-.6-.52-.39-1-.84c-.23-.23-.17-.44-.24-.65a10.16,10.16,0,0,0-1.11-2.52c-.21-.31-.38-.39-.41-.65a4.48,4.48,0,0,0-.41-1.2c0-.19.22-.46.13-.64a16.85,16.85,0,0,1-1.2-3.07c-.11-.37-.72-.62-.72-1s-.5-.51-.5-.55a3.28,3.28,0,0,0,0-1.41c-.14-.64-.92-1.26-2.11-2.1a6,6,0,0,0,.13-1.37c0-.08-.11-.11-.12-.2a1.79,1.79,0,0,0-.26-.72c-.12-.14-.21-.08-.43-.07a.9.9,0,0,1-.44-.09c-.27-.18-.63-.16-1,.39-.07.09-.17.11-.21.22a2.89,2.89,0,0,0-.17.68c0,.39,0,.47,0,.59a3,3,0,0,0-1.25.13C24.91,30.66,24.18,32.33,24.38,32.5Zm1.85,1.81a7,7,0,0,1,.11-.91A17.26,17.26,0,0,0,27,35.9l-.65-1c-.06-.09,0-.41-.07-.47S26.23,34.38,26.23,34.3Z"/><path class="cls-9" d="M44.84,28.77a42.35,42.35,0,0,0-29.31,0,8.23,8.23,0,0,0,0-5.27,42.32,42.32,0,0,1,29.31,0,6.4,6.4,0,0,0,0,5.27"/><path class="cls-6" d="M18.49,25.25l.6-1.36a.08.08,0,0,0,0-.08.08.08,0,0,0-.08,0l-.34.1a.07.07,0,0,0,0,0l-.38.93-.36-.66a.08.08,0,0,0-.09,0l-.33.11a.07.07,0,0,0,0,0,.09.09,0,0,0,0,.06l.59,1-.64,1.48a.07.07,0,0,0,0,.08l.06,0h0l.33-.11a.07.07,0,0,0,0,0l.42-1,.42.73a.07.07,0,0,0,.08,0l.34-.1a.08.08,0,0,0,0,0,.07.07,0,0,0,0-.07l-.64-1.07"/><path class="cls-6" d="M20.82,23.56a.6.6,0,0,0-.28-.13.88.88,0,0,0-.37,0,1.07,1.07,0,0,0-.38.17,1,1,0,0,0-.25.26,1,1,0,0,0-.14.3,1,1,0,0,0,0,.29v1a1.06,1.06,0,0,0,0,.31.56.56,0,0,0,.15.25.55.55,0,0,0,.28.13h.11a1.06,1.06,0,0,0,.27,0,1.17,1.17,0,0,0,.33-.14,1.08,1.08,0,0,0,.26-.23,1,1,0,0,0,.23-.65v-1a.81.81,0,0,0,0-.28.62.62,0,0,0-.16-.24m-.26.6v1.07a.49.49,0,0,1,0,.17.54.54,0,0,1-.08.14.58.58,0,0,1-.12.11.49.49,0,0,1-.15.06.39.39,0,0,1-.18,0,.21.21,0,0,1-.11-.05.23.23,0,0,1-.06-.11.65.65,0,0,1,0-.18v-1a.68.68,0,0,1,0-.14.46.46,0,0,1,.06-.15A.54.54,0,0,1,20,24a.5.5,0,0,1,.2-.09l.11,0h.07a.23.23,0,0,1,.11.07.24.24,0,0,1,.06.1.44.44,0,0,1,0,.11"/><path class="cls-6" d="M22.86,24.3a.37.37,0,0,0-.14-.12.64.64,0,0,0,.11-.14,1.36,1.36,0,0,0,.15-.35l.2-.77a.08.08,0,0,0,0-.07.07.07,0,0,0-.07,0l-.3.06a.08.08,0,0,0-.06.05l-.21.76a.83.83,0,0,1-.09.2.46.46,0,0,1-.1.12l-.11.06-.11,0-.19,0v-1a.07.07,0,0,0,0-.06.08.08,0,0,0-.06,0l-.32.07a.07.07,0,0,0-.06.07v2.5a.08.08,0,0,0,0,.06h.06l.32-.07a.08.08,0,0,0,.06-.07V24.57l.24-.05h.13l.09,0a.26.26,0,0,1,.09.08.48.48,0,0,1,.07.16l.2.71a.07.07,0,0,0,.08.05l.33-.06,0,0a.06.06,0,0,0,0-.06L23,24.61a1,1,0,0,0-.15-.32"/><path class="cls-6" d="M24.95,24a.4.4,0,0,0-.14-.12.75.75,0,0,0,.11-.13,1.25,1.25,0,0,0,.15-.35l.21-.76a.07.07,0,0,0-.08-.09l-.3,0a.08.08,0,0,0-.06.05l-.21.75a.77.77,0,0,1-.09.19.41.41,0,0,1-.1.11l-.1.06-.12,0-.2,0v-1a.08.08,0,0,0,0-.06.07.07,0,0,0-.06,0l-.32.05a.07.07,0,0,0-.06.07v2.5a.08.08,0,0,0,0,.06l0,0h0l.32-.05a.07.07,0,0,0,.06-.07V24.18l.24,0h.13l.1,0a.25.25,0,0,1,.09.08.49.49,0,0,1,.08.17l.2.73a.07.07,0,0,0,.08.05l.33,0a.07.07,0,0,0,.05,0,.07.07,0,0,0,0-.06l-.23-.77a1,1,0,0,0-.15-.32"/><path class="cls-6" d="M27.14,22.3c-.48,0-1,.08-1.42.14a.07.07,0,0,0-.07.07V25a.07.07,0,0,0,0,.05l0,0h0L27.15,25a.07.07,0,0,0,.07-.07v-.29a.07.07,0,0,0,0-.05.06.06,0,0,0-.05,0l-1,.09v-.7l.87-.08a.08.08,0,0,0,.07-.07v-.27a.08.08,0,0,0,0-.06l-.06,0-.86.08v-.67l1-.09a.07.07,0,0,0,.07-.07v-.28a.07.07,0,0,0,0-.05.06.06,0,0,0-.05,0"/><path class="cls-6" d="M29.33,22.2H29a.07.07,0,0,0-.06,0l-.64,1.18L28,24V22.32a.08.08,0,0,0,0-.05l-.06,0-.32,0a.07.07,0,0,0-.07.07v2.51a.09.09,0,0,0,0,.05l.05,0h0l.3,0a.07.07,0,0,0,.06,0l.67-1.25.25-.47v1.63a.08.08,0,0,0,0,.05s0,0,.05,0h.32a.08.08,0,0,0,.07-.07q0-1.25,0-2.51a.06.06,0,0,0,0-.05l-.05,0"/><path class="cls-6" d="M28,22.06a.52.52,0,0,0,.19.12.66.66,0,0,0,.24,0h0a.67.67,0,0,0,.27-.06.55.55,0,0,0,.18-.13.51.51,0,0,0,.1-.17.68.68,0,0,0,0-.17.07.07,0,0,0,0-.06l-.06,0h-.26a.07.07,0,0,0-.07.07.12.12,0,0,1,0,0l0,.05-.06,0-.1,0H28.4l-.06,0,0-.05a.11.11,0,0,1,0,0,.07.07,0,0,0-.08-.07h-.27a.07.07,0,0,0-.07.07.52.52,0,0,0,.14.34"/><path class="cls-6" d="M31.75,22.22l-.76,0-.05,0a.08.08,0,0,0,0,.05v2.51a.07.07,0,0,0,.07.07h.32l.05,0a.07.07,0,0,0,0-.05v-.93h.38a1,1,0,0,0,.38-.05.66.66,0,0,0,.26-.17.71.71,0,0,0,.15-.26,1.06,1.06,0,0,0,0-.3.84.84,0,0,0-.23-.63.93.93,0,0,0-.62-.23m-.37.42h.36a.41.41,0,0,1,.31.11.47.47,0,0,1,.09.3.6.6,0,0,1,0,.15.24.24,0,0,1-.06.12.29.29,0,0,1-.12.08l-.16,0h-.4Z"/><path class="cls-6" d="M34.38,22.65a.9.9,0,0,0-.26-.21,1,1,0,0,0-.38-.11.92.92,0,0,0-.4,0,.65.65,0,0,0-.27.18.73.73,0,0,0-.15.26.94.94,0,0,0,0,.28v1a1.29,1.29,0,0,0,0,.33.81.81,0,0,0,.15.29.82.82,0,0,0,.27.21,1,1,0,0,0,.39.1h.1a.86.86,0,0,0,.24,0,.7.7,0,0,0,.27-.14.69.69,0,0,0,.18-.25.87.87,0,0,0,.06-.33v-1a1,1,0,0,0-.05-.3.9.9,0,0,0-.16-.28m-.27.55v1.07a.38.38,0,0,1,0,.15.34.34,0,0,1-.08.11.3.3,0,0,1-.11.06.38.38,0,0,1-.15,0,.52.52,0,0,1-.19-.05.41.41,0,0,1-.12-.1.39.39,0,0,1-.07-.15.64.64,0,0,1,0-.19v-1a.49.49,0,0,1,0-.13.29.29,0,0,1,.06-.12.33.33,0,0,1,.12-.09.3.3,0,0,1,.13,0h.06a.4.4,0,0,1,.19.06.43.43,0,0,1,.12.12.39.39,0,0,1,.06.14.69.69,0,0,1,0,.12"/><path class="cls-6" d="M35.47,23.18a.28.28,0,0,1,.07-.1.27.27,0,0,1,.11-.06.35.35,0,0,1,.16,0,.47.47,0,0,1,.25.11.41.41,0,0,1,.13.21.07.07,0,0,0,.09.05l.3-.06a.07.07,0,0,0,0,0,.07.07,0,0,0,0-.06.82.82,0,0,0-.29-.43,1,1,0,0,0-.5-.21,1,1,0,0,0-.36,0,.69.69,0,0,0-.28.14A.66.66,0,0,0,35,23a.85.85,0,0,0-.06.31v1.05a1,1,0,0,0,.06.34,1,1,0,0,0,.17.28.92.92,0,0,0,.27.2,1.06,1.06,0,0,0,.35.11H36a.77.77,0,0,0,.35-.07.55.55,0,0,0,.3-.36.08.08,0,0,0,0-.09l-.3-.15a.07.07,0,0,0-.1,0,.27.27,0,0,1-.12.16.35.35,0,0,1-.24,0,.53.53,0,0,1-.17-.06.44.44,0,0,1-.12-.1.49.49,0,0,1-.08-.14.45.45,0,0,1,0-.15V23.32a.37.37,0,0,1,0-.14"/><path class="cls-6" d="M37.44,23.5a.24.24,0,0,1,.18-.15.34.34,0,0,1,.16,0,.48.48,0,0,1,.25.12.46.46,0,0,1,.13.22.08.08,0,0,0,.09.05l.29,0a.07.07,0,0,0,.05,0,.08.08,0,0,0,0-.06.91.91,0,0,0-.29-.44,1.07,1.07,0,0,0-.5-.23.82.82,0,0,0-.36,0,.63.63,0,0,0-.27.13.61.61,0,0,0-.17.24.82.82,0,0,0-.06.32v1.05a.93.93,0,0,0,.23.62,1,1,0,0,0,.26.21,1.07,1.07,0,0,0,.35.13l.22,0a.75.75,0,0,0,.29-.06.53.53,0,0,0,.3-.35.07.07,0,0,0,0-.09l-.3-.17H38.2a.08.08,0,0,0,0,0,.23.23,0,0,1-.11.15.34.34,0,0,1-.23,0,.45.45,0,0,1-.17-.06.41.41,0,0,1-.12-.11.47.47,0,0,1-.08-.14.48.48,0,0,1,0-.16V23.63a.36.36,0,0,1,0-.14"/><path class="cls-6" d="M40.4,23.52a.07.07,0,0,0-.08,0l-.62,1-.27.45V23.33a.07.07,0,0,0-.06-.07l-.31-.07a.07.07,0,0,0-.06,0,.07.07,0,0,0,0,.06v2.51a.07.07,0,0,0,.06.07l.3.07a.07.07,0,0,0,.08,0l.65-1.05.24-.39V26.1a.07.07,0,0,0,.05.07l.31.08h.06a.08.08,0,0,0,0-.06V23.67a.07.07,0,0,0-.05-.07l-.3-.08"/><path class="cls-6" d="M43,24.3l-.3-.1a.07.07,0,0,0-.08,0l-.61,1-.26.43V23.95a.08.08,0,0,0-.06-.07l-.31-.09a.08.08,0,0,0-.1.07v2.51a.08.08,0,0,0,.05.07l.3.09a.08.08,0,0,0,.09,0l.64-1,.24-.38v1.67a.08.08,0,0,0,0,.07l.31.1H43a.08.08,0,0,0,0-.06v-2.5a.08.08,0,0,0,0-.07"/></g></g></svg>
