<svg class="svg-ligastavok" xmlns="http://www.w3.org/2000/svg" viewBox="0 0 144 44" width="144" height="44">
    <path d="M144 45.61H136.42V9.61885H7.57938V45.61H0V2H144V45.61Z"></path>
    <path d="M124.033 33.2707H120.567V45.6095H124.033V41.6178L124.512 40.771L126.612 45.6095H130.192L126.771 38.1337L130.055 33.2707H126.154L124.033 37.2175V33.2707V33.2707ZM113.995 35.6588C114.636 35.6588 114.998 36.0469 114.998 36.9427V42.057C114.998 42.8598 114.612 43.2929 113.995 43.2929C113.358 43.2929 112.947 42.8598 112.947 41.9865V36.9427C112.948 36.1378 113.288 35.6588 113.995 35.6588ZM113.995 32.9275C111.373 32.9275 109.481 34.096 109.481 37.6281V41.2286C109.481 44.7607 111.395 45.9538 113.995 45.9538C116.595 45.9538 118.467 44.7607 118.467 41.2062V37.6526C118.467 34.096 116.573 32.9275 113.995 32.9275ZM99.0326 45.6095H104.328C106.653 45.6095 107.611 43.9109 107.611 42.2368C107.611 40.4728 106.902 39.7169 105.511 39.1664C106.699 38.7312 107.382 37.9509 107.382 36.2992C107.382 34.3707 105.991 33.2707 104.053 33.2707H99.0337V45.6095H99.0326ZM102.317 40.4728H103.094C103.983 40.4728 104.327 40.9784 104.327 41.9181C104.327 42.7189 103.982 43.1796 103.094 43.1796H102.317V40.4728ZM102.317 35.7037H102.91C103.754 35.7037 104.096 36.0469 104.096 36.9652C104.096 37.8354 103.753 38.2481 102.91 38.2481H102.317V35.7037ZM91.0946 37.2849V36.8498C91.0946 35.909 91.436 35.3574 92.2122 35.3574C93.0108 35.3574 93.2841 35.8396 93.2841 36.3452C93.2841 37.101 93.0118 37.3533 92.2366 37.7435L89.8632 38.959C88.3819 39.7169 87.628 40.7486 87.628 42.6065C87.628 45.0355 88.768 45.9538 90.6394 45.9538C92.3504 45.9538 92.9884 45.058 93.4893 44.0478L93.6956 45.6085H97.026C96.7995 45.0825 96.7527 44.6474 96.7527 43.5238V36.482C96.7527 34.1899 95.3832 32.9275 92.2376 32.9275C89.089 32.9275 87.8109 34.718 87.8109 37.2849H91.0946ZM93.2831 39.485V41.4115C93.2831 42.6974 92.8736 43.2705 92.0527 43.2705C91.3446 43.2705 91.0946 42.9273 91.0946 42.0774C91.0946 41.391 91.2308 40.8415 91.756 40.5208C92.2803 40.198 93.1927 39.624 93.2831 39.485ZM78.0928 33.2707V36.0469H80.4876V45.6095H83.9542V36.0469H86.3499V33.2707H78.0928ZM72.9366 39.0949V41.2766C72.9366 42.5146 72.3453 42.9722 71.502 42.9722C70.6791 42.9722 70.1548 42.4676 70.1548 41.2286V33.0173C70.1548 32.1716 70.8396 31.8039 71.502 31.8039C72.1167 31.8039 72.9366 32.2145 72.9366 33.0888V34.5801H76.8848V33.4545C76.8848 30.8856 75.2409 28.7764 71.5457 28.7764C67.8038 28.7764 66.2066 30.8397 66.2066 33.4331V40.6086C66.2066 44.394 67.9196 45.9997 71.5457 45.9997C75.1952 45.9997 76.8848 44.3695 76.8848 40.6342V39.0938H72.9366V39.0949ZM52.4774 37.2849V36.8498C52.4774 35.909 52.8208 35.3574 53.596 35.3574C54.3936 35.3574 54.6689 35.8396 54.6689 36.3452C54.6689 37.101 54.3946 37.3533 53.6184 37.7435L51.246 38.959C49.7637 39.7169 49.0118 40.7486 49.0118 42.6065C49.0118 45.0355 50.1518 45.9538 52.0222 45.9538C53.7332 45.9538 54.3722 45.058 54.8721 44.0478L55.0773 45.6085H58.4068C58.1802 45.0825 58.1355 44.6474 58.1355 43.5238V36.482C58.1355 34.1899 56.7659 32.9275 53.6184 32.9275C50.4698 32.9275 49.1927 34.718 49.1927 37.2849H52.4774ZM54.6679 39.485V41.4115C54.6679 42.6974 54.2564 43.2705 53.4355 43.2705C52.7283 43.2705 52.4764 42.9273 52.4764 42.0774C52.4764 41.391 52.6135 40.8415 53.1398 40.5208C53.6631 40.198 54.5775 39.624 54.6679 39.485ZM40.0446 33.2707V45.6095H43.5112V36.0469H47.7327V33.2707H40.0446ZM28.5709 33.2707V45.6095H31.9938L34.9818 37.6056V37.6536L34.5927 40.1735V45.6095H37.7626V33.2707H34.3641L31.376 41.2531V41.1837L31.7418 38.6832V33.2696H28.5709V33.2707ZM15.9359 29.142V36.9172C15.9359 42.009 15.8668 42.676 14.7715 42.676C14.3824 42.676 13.9963 42.627 13.8145 42.5381V45.3103C14.4972 45.6085 15.0885 45.7934 15.9359 45.7934C18.6029 45.7934 19.7459 44.1642 19.7459 37.9274V32.2615H22.3448V45.6085H26.292V29.142H15.9359Z"></path>
</svg>
