<svg class="svg-title-line" xmlns="http://www.w3.org/2000/svg" viewBox="0 0 71 10" width="71px" height="10px">
    <path fill-rule="evenodd" d="M70.991,8.327 L69.356,9.990 L62.665,3.185 L56.068,9.894 L55.952,9.776 L55.742,9.990 L49.051,3.185 L42.454,9.894 L42.338,9.776 L42.128,9.990 L35.437,3.185 L28.840,9.894 L28.724,9.776 L28.514,9.990 L21.823,3.185 L15.227,9.894 L15.110,9.776 L14.900,9.990 L8.209,3.185 L1.613,9.894 L0.008,8.262 L8.030,0.104 L8.146,0.222 L8.357,0.008 L15.048,6.813 L21.644,0.104 L21.760,0.222 L21.971,0.008 L28.661,6.813 L35.258,0.104 L35.374,0.222 L35.584,0.008 L42.275,6.813 L48.872,0.104 L48.988,0.222 L49.198,0.008 L55.889,6.813 L62.486,0.104 L62.602,0.222 L62.812,0.008 L70.991,8.327 Z" />
</svg>
